<?xml version="1.0" encoding="UTF-8"?>
<svg xmlns="http://www.w3.org/2000/svg" xmlns:xlink="http://www.w3.org/1999/xlink" id="Livello_1" data-name="Livello 1" viewBox="0 0 569.19106 95.6983">
  <defs>
    <style>.cls-1{fill:none;}.cls-2{fill:#ea212d;}.cls-3{clip-path:url(#clip-path);}.cls-4{fill:#ddd4c6;}.cls-5{fill:#89d0ca;}.cls-6{fill:#f2aa39;}.cls-7{fill:#c3e086;}.cls-8{fill:#93908c;}</style>
    <clipPath id="clip-path" transform="translate(-33.5164 -33.5172)">
      <rect class="cls-1" width="636.224" height="162.73199"></rect>
    </clipPath>
  </defs>
  <title>E-RIHS_Logo_RGB (2)</title>
  <polygon class="cls-2" points="108.392 46.402 108.392 0.685 141.908 0.685 141.908 10.966 120.181 10.966 120.181 18.094 141.429 18.094 141.429 28.376 120.181 28.376 120.181 36.121 141.908 36.121 141.908 46.402 108.392 46.402"></polygon>
  <rect class="cls-2" x="147.19561" y="25.35979" width="16.45" height="8.842"></rect>
  <g class="cls-3">
    <path class="cls-2" d="M229.2249,79.91859l-7.677-15.353h-6.031v15.353h-11.789V34.2016h22.893c10.144,0,15.901,6.717,15.901,15.216,0,7.951-4.797,12.201-9.116,13.709l9.322,16.792Zm1.302-30.569c0-3.153-2.536-4.866-5.689-4.866h-9.321v9.801h9.321c3.153,0,5.689-1.714,5.689-4.935" transform="translate(-33.5164 -33.5172)"></path>
    <rect class="cls-2" x="214.73059" y="0.6848" width="11.78899" height="45.717"></rect>
    <polygon class="cls-2" points="264.822 46.402 264.822 28.033 245.836 28.033 245.836 46.402 234.046 46.402 234.046 0.685 245.836 0.685 245.836 17.752 264.822 17.752 264.822 0.685 276.61 0.685 276.61 46.402 264.822 46.402"></polygon>
    <path class="cls-2" d="M314.46909,73.4762l6.237-9.185a20.69321,20.69321,0,0,0,14.668,6.032c3.975,0,6.443-1.371,6.443-3.632,0-6.033-25.84-1.029-25.84-18.644,0-7.676,6.442-14.53,18.163-14.53,7.334,0,13.708,2.193,18.574,6.373l-6.442,8.843a21.19488,21.19488,0,0,0-13.366-4.798c-3.427,0-4.935,1.165-4.935,3.152,0,5.621,25.841,1.371,25.841,18.369,0,9.185-6.787,15.286-19.055,15.286-9.253,0-15.696-2.948-20.288-7.266" transform="translate(-33.5164 -33.5172)"></path>
    <path class="cls-4" d="M70.4345,96.3103a.74854.74854,0,0,0,.74-.739v-11.566a.75317.75317,0,0,0-.74-.742h-6.013a.75452.75452,0,0,0-.74.742v11.566a.74987.74987,0,0,0,.74.739Z" transform="translate(-33.5164 -33.5172)"></path>
    <path class="cls-5" d="M70.4345,99.589h-6.013a.75317.75317,0,0,0-.74.742v11.565a.75276.75276,0,0,0,.74.74h6.013a.75142.75142,0,0,0,.74-.74V100.331a.75183.75183,0,0,0-.74-.742" transform="translate(-33.5164 -33.5172)"></path>
    <path class="cls-6" d="M70.4345,115.91489h-6.013a.75008.75008,0,0,0-.74.74v11.565a.75316.75316,0,0,0,.74.742h6.013a.75182.75182,0,0,0,.74-.742v-11.565a.74875.74875,0,0,0-.74-.74" transform="translate(-33.5164 -33.5172)"></path>
    <path class="cls-6" d="M74.5074,96.3103h6.013a.74988.74988,0,0,0,.74-.739v-11.566a.75453.75453,0,0,0-.74-.742h-6.013a.75559.75559,0,0,0-.742.742v11.566a.751.751,0,0,0,.742.739" transform="translate(-33.5164 -33.5172)"></path>
    <path class="cls-4" d="M80.5182,99.589h-6.011a.75492.75492,0,0,0-.742.742v11.565a.75451.75451,0,0,0,.742.74h6.011a.75316.75316,0,0,0,.742-.74V100.331a.75357.75357,0,0,0-.742-.742" transform="translate(-33.5164 -33.5172)"></path>
    <path class="cls-4" d="M80.5182,115.91489h-6.011a.75182.75182,0,0,0-.742.74v11.565a.7549.7549,0,0,0,.742.742h6.011a.75355.75355,0,0,0,.742-.742v-11.565a.75048.75048,0,0,0-.742-.74" transform="translate(-33.5164 -33.5172)"></path>
    <path class="cls-4" d="M90.6037,96.3103a.751.751,0,0,0,.742-.739v-11.566a.7556.7556,0,0,0-.742-.742h-6.011a.75492.75492,0,0,0-.742.742v11.566a.75029.75029,0,0,0,.742.739Z" transform="translate(-33.5164 -33.5172)"></path>
    <path class="cls-4" d="M90.6037,99.589h-6.011a.75454.75454,0,0,0-.742.74v11.567a.75452.75452,0,0,0,.742.74h6.011a.75384.75384,0,0,0,.742-.74V100.329a.75386.75386,0,0,0-.742-.74" transform="translate(-33.5164 -33.5172)"></path>
    <path class="cls-5" d="M90.6037,115.91489h-6.011a.75183.75183,0,0,0-.742.74v11.565a.75491.75491,0,0,0,.742.742h6.011a.75423.75423,0,0,0,.742-.742v-11.565a.75116.75116,0,0,0-.742-.74" transform="translate(-33.5164 -33.5172)"></path>
    <path class="cls-2" d="M94.8523,83.26319a.75317.75317,0,0,0-.74.742v11.566a.74854.74854,0,0,0,.74.739h6.013a.74854.74854,0,0,0,.74-.739V84.0052a.75317.75317,0,0,0-.74-.742Z" transform="translate(-33.5164 -33.5172)"></path>
    <path class="cls-4" d="M100.8649,99.589h-6.013a.75318.75318,0,0,0-.74.742v11.565a.75277.75277,0,0,0,.74.74h6.013a.75209.75209,0,0,0,.74-.74V100.331a.7525.7525,0,0,0-.74-.742" transform="translate(-33.5164 -33.5172)"></path>
    <path class="cls-2" d="M100.8649,115.91489h-6.013a.75009.75009,0,0,0-.74.74v11.565a.75317.75317,0,0,0,.74.742h6.013a.75249.75249,0,0,0,.74-.742v-11.565a.74942.74942,0,0,0-.74-.74" transform="translate(-33.5164 -33.5172)"></path>
    <path class="cls-4" d="M110.9503,83.26319h-6.012a.75472.75472,0,0,0-.741.742v11.566a.75007.75007,0,0,0,.741.739h6.012a.74854.74854,0,0,0,.74-.739V84.0052a.75318.75318,0,0,0-.74-.742" transform="translate(-33.5164 -33.5172)"></path>
    <path class="cls-6" d="M111.6889,100.3312a.75028.75028,0,0,0-.739-.742h-6.012a.75336.75336,0,0,0-.741.742v11.564a.75316.75316,0,0,0,.741.741l6.012.002a.75316.75316,0,0,0,.739-.743Z" transform="translate(-33.5164 -33.5172)"></path>
    <path class="cls-7" d="M111.6889,116.65519a.7472.7472,0,0,0-.739-.74h-6.012a.75026.75026,0,0,0-.741.74v11.564a.75357.75357,0,0,0,.741.743h6.012a.75049.75049,0,0,0,.739-.743Z" transform="translate(-33.5164 -33.5172)"></path>
    <path class="cls-5" d="M121.0341,96.3103a.74721.74721,0,0,0,.74-.739v-11.566a.75181.75181,0,0,0-.74-.742h-6.011a.75221.75221,0,0,0-.742.742v11.566a.74762.74762,0,0,0,.742.739Z" transform="translate(-33.5164 -33.5172)"></path>
    <path class="cls-4" d="M121.7744,100.3312a.75048.75048,0,0,0-.74-.742h-6.011a.75289.75289,0,0,0-.742.742v11.564a.75269.75269,0,0,0,.742.741h6.011a.75028.75028,0,0,0,.74-.741Z" transform="translate(-33.5164 -33.5172)"></path>
    <path class="cls-2" d="M121.7744,116.65519a.74741.74741,0,0,0-.74-.74h-6.011a.7498.7498,0,0,0-.742.74v11.564a.75309.75309,0,0,0,.742.743h6.011a.75069.75069,0,0,0,.74-.743Z" transform="translate(-33.5164 -33.5172)"></path>
    <path class="cls-4" d="M70.4345,34.2912h-6.013a.75007.75007,0,0,0-.74.74v11.565a.75452.75452,0,0,0,.74.742h6.013a.75317.75317,0,0,0,.74-.742V35.0312a.74874.74874,0,0,0-.74-.74" transform="translate(-33.5164 -33.5172)"></path>
    <path class="cls-4" d="M70.4345,63.66229a.74915.74915,0,0,0,.74-.742v-11.563a.75048.75048,0,0,0-.74-.742h-6.013a.75181.75181,0,0,0-.74.742v11.563a.75047.75047,0,0,0,.74.742Z" transform="translate(-33.5164 -33.5172)"></path>
    <path class="cls-2" d="M70.4345,66.93919h-6.013a.75318.75318,0,0,0-.74.742v11.563a.75183.75183,0,0,0,.74.742h6.013a.75049.75049,0,0,0,.74-.742V67.6812a.75184.75184,0,0,0-.74-.742" transform="translate(-33.5164 -33.5172)"></path>
    <path class="cls-6" d="M80.5182,34.2912h-6.011a.75181.75181,0,0,0-.742.74v11.565a.75181.75181,0,0,0,.742.74h6.011a.75047.75047,0,0,0,.742-.74V35.0312a.75047.75047,0,0,0-.742-.74" transform="translate(-33.5164 -33.5172)"></path>
    <path class="cls-4" d="M74.5074,63.66229h6.013a.75048.75048,0,0,0,.74-.742v-11.563a.75182.75182,0,0,0-.74-.742h-6.013a.75288.75288,0,0,0-.742.742v11.563a.75154.75154,0,0,0,.742.742" transform="translate(-33.5164 -33.5172)"></path>
    <path class="cls-4" d="M80.5182,66.93919h-6.011a.75493.75493,0,0,0-.742.742v11.563a.75357.75357,0,0,0,.742.742h6.011a.75222.75222,0,0,0,.742-.742V67.6812a.75357.75357,0,0,0-.742-.742" transform="translate(-33.5164 -33.5172)"></path>
    <path class="cls-4" d="M90.6037,34.2912h-6.011a.75182.75182,0,0,0-.742.74v11.565a.75628.75628,0,0,0,.742.742h6.011a.7556.7556,0,0,0,.742-.742V35.0312a.75115.75115,0,0,0-.742-.74" transform="translate(-33.5164 -33.5172)"></path>
    <path class="cls-5" d="M90.6037,63.66229a.75155.75155,0,0,0,.742-.742v-11.563a.75288.75288,0,0,0-.742-.742h-6.011a.75221.75221,0,0,0-.742.742v11.563a.75088.75088,0,0,0,.742.742Z" transform="translate(-33.5164 -33.5172)"></path>
    <path class="cls-7" d="M90.6037,66.93919h-6.011a.7563.7563,0,0,0-.742.742v11.563a.75357.75357,0,0,0,.742.742h6.011a.7529.7529,0,0,0,.742-.742V67.6812a.75561.75561,0,0,0-.742-.742" transform="translate(-33.5164 -33.5172)"></path>
    <path class="cls-6" d="M40.2676,96.3103a.74894.74894,0,0,0,.742-.739v-11.566a.75356.75356,0,0,0-.742-.742h-6.009a.75221.75221,0,0,0-.742.742v11.566a.74762.74762,0,0,0,.742.739Z" transform="translate(-33.5164 -33.5172)"></path>
    <path class="cls-4" d="M40.2694,99.589h-6.011a.75088.75088,0,0,0-.742.742v11.565a.75047.75047,0,0,0,.742.74h6.011a.75074.75074,0,0,0,.74-.74V100.331a.75115.75115,0,0,0-.74-.742" transform="translate(-33.5164 -33.5172)"></path>
    <path class="cls-5" d="M40.2694,115.91489h-6.011a.74783.74783,0,0,0-.742.74v11.565a.75087.75087,0,0,0,.742.742h6.011a.75114.75114,0,0,0,.74-.742v-11.565a.74808.74808,0,0,0-.74-.74" transform="translate(-33.5164 -33.5172)"></path>
    <path class="cls-2" d="M44.3441,96.3103h6.009a.74961.74961,0,0,0,.742-.739v-11.566a.75423.75423,0,0,0-.742-.742h-6.009a.75221.75221,0,0,0-.742.742v11.566a.74762.74762,0,0,0,.742.739" transform="translate(-33.5164 -33.5172)"></path>
    <path class="cls-7" d="M50.3531,112.63779a.75558.75558,0,0,0,.742-.742v-11.565a.7529.7529,0,0,0-.742-.742h-6.009a.75089.75089,0,0,0-.742.742v11.565a.75048.75048,0,0,0,.742.74Z" transform="translate(-33.5164 -33.5172)"></path>
    <path class="cls-4" d="M50.3531,128.96189a.75287.75287,0,0,0,.742-.742v-11.565a.74981.74981,0,0,0-.742-.74h-6.009a.74782.74782,0,0,0-.742.74v11.565a.75086.75086,0,0,0,.742.742Z" transform="translate(-33.5164 -33.5172)"></path>
    <path class="cls-4" d="M54.4261,83.26319a.75317.75317,0,0,0-.74.742v11.566a.74854.74854,0,0,0,.74.739h6.013a.753.753,0,0,0,.742-.739V84.0052a.75765.75765,0,0,0-.742-.742Z" transform="translate(-33.5164 -33.5172)"></path>
    <path class="cls-4" d="M54.4261,112.63609h6.013a.75588.75588,0,0,0,.742-.74h-.002l.002-11.565a.75626.75626,0,0,0-.742-.742h-6.013a.75026.75026,0,0,0-.739.742v11.565a.74986.74986,0,0,0,.739.74" transform="translate(-33.5164 -33.5172)"></path>
    <path class="cls-2" d="M54.4261,128.96189h6.013a.75626.75626,0,0,0,.742-.742h-.002l.002-11.565a.75316.75316,0,0,0-.742-.74h-6.013a.74721.74721,0,0,0-.739.74v11.565a.75026.75026,0,0,0,.739.742" transform="translate(-33.5164 -33.5172)"></path>
    <path class="cls-6" d="M40.2694,34.2912h-6.011a.74782.74782,0,0,0-.742.74v11.565a.74782.74782,0,0,0,.742.74l6.011.002a.75115.75115,0,0,0,.74-.742V35.0312a.74807.74807,0,0,0-.74-.74" transform="translate(-33.5164 -33.5172)"></path>
    <rect class="cls-4" x="0.0002" y="17.0981" width="7.493" height="13.047" rx="0.742"></rect>
    <path class="cls-5" d="M40.2694,66.93919h-6.011a.75089.75089,0,0,0-.742.742v11.563a.74956.74956,0,0,0,.742.742h6.011a.74982.74982,0,0,0,.74-.742V67.6812a.75116.75116,0,0,0-.74-.742" transform="translate(-33.5164 -33.5172)"></path>
    <path class="cls-2" d="M50.3531,47.3382a.75289.75289,0,0,0,.742-.742V35.0312a.74981.74981,0,0,0-.742-.74h-6.009a.74782.74782,0,0,0-.742.74v11.565a.75088.75088,0,0,0,.742.742Z" transform="translate(-33.5164 -33.5172)"></path>
    <path class="cls-4" d="M44.3441,63.66229h6.009a.75021.75021,0,0,0,.742-.742v-11.563a.7502.7502,0,0,0-.742-.742h-6.009a.74822.74822,0,0,0-.742.742v11.563a.74823.74823,0,0,0,.742.742" transform="translate(-33.5164 -33.5172)"></path>
    <path class="cls-4" d="M50.3531,79.9862a.75154.75154,0,0,0,.742-.742V67.6812a.75423.75423,0,0,0-.742-.742h-6.009a.75221.75221,0,0,0-.742.742v11.563a.74955.74955,0,0,0,.742.742Z" transform="translate(-33.5164 -33.5172)"></path>
    <path class="cls-7" d="M54.4261,47.3382h6.013a.75627.75627,0,0,0,.742-.742h-.002l.002-11.565a.75316.75316,0,0,0-.742-.74h-6.013a.74721.74721,0,0,0-.739.74v11.565a.75028.75028,0,0,0,.739.742" transform="translate(-33.5164 -33.5172)"></path>
    <path class="cls-6" d="M54.4261,50.6152a.74914.74914,0,0,0-.74.742v11.563a.74914.74914,0,0,0,.74.742h6.013a.75355.75355,0,0,0,.742-.742V51.3572a.75355.75355,0,0,0-.742-.742Z" transform="translate(-33.5164 -33.5172)"></path>
    <path class="cls-4" d="M54.4261,79.9862h6.013a.75491.75491,0,0,0,.742-.742h-.002l.002-11.563a.75627.75627,0,0,0-.742-.742h-6.013a.75028.75028,0,0,0-.739.742v11.563a.74894.74894,0,0,0,.739.742" transform="translate(-33.5164 -33.5172)"></path>
    <path class="cls-2" d="M100.8649,34.2912h-6.013a.75008.75008,0,0,0-.74.74v11.565a.75453.75453,0,0,0,.74.742h6.013a.75385.75385,0,0,0,.74-.742V35.0312a.74941.74941,0,0,0-.74-.74" transform="translate(-33.5164 -33.5172)"></path>
    <path class="cls-4" d="M94.8523,50.6152a.75048.75048,0,0,0-.74.742v11.563a.74914.74914,0,0,0,.74.742h6.013a.74914.74914,0,0,0,.74-.742V51.3572a.75048.75048,0,0,0-.74-.742Z" transform="translate(-33.5164 -33.5172)"></path>
    <path class="cls-4" d="M100.8649,66.93919h-6.013a.75455.75455,0,0,0-.74.742v11.563a.75049.75049,0,0,0,.74.742h6.013a.74982.74982,0,0,0,.74-.742V67.6812a.75386.75386,0,0,0-.74-.742" transform="translate(-33.5164 -33.5172)"></path>
    <path class="cls-6" d="M111.6889,35.03159a.74721.74721,0,0,0-.739-.74h-6.012a.75027.75027,0,0,0-.741.74v11.564a.75357.75357,0,0,0,.741.743h6.012a.75049.75049,0,0,0,.739-.743Z" transform="translate(-33.5164 -33.5172)"></path>
    <path class="cls-4" d="M110.9503,50.6152h-6.012a.75068.75068,0,0,0-.741.742v11.563a.75068.75068,0,0,0,.741.742h6.012a.74915.74915,0,0,0,.74-.742V51.3572a.74915.74915,0,0,0-.74-.742" transform="translate(-33.5164 -33.5172)"></path>
    <path class="cls-6" d="M111.6889,67.6814a.751.751,0,0,0-.739-.742h-6.012a.754.754,0,0,0-.741.742v11.563a.752.752,0,0,0,.741.742h6.012a.74894.74894,0,0,0,.739-.742Z" transform="translate(-33.5164 -33.5172)"></path>
    <path class="cls-5" d="M121.7744,35.03159a.74742.74742,0,0,0-.74-.74h-6.011a.74981.74981,0,0,0-.742.74v11.564a.75309.75309,0,0,0,.742.743h6.011a.75069.75069,0,0,0,.74-.743Z" transform="translate(-33.5164 -33.5172)"></path>
    <path class="cls-4" d="M81.5047,17.0981h6.011a.742.742,0,0,1,.742.742v11.563a.742.742,0,0,1-.742.742h-6.009a.742.742,0,0,1-.742-.742V17.8381A.74.74,0,0,1,81.5047,17.0981Z"></path>
    <path class="cls-2" d="M121.7744,67.6814a.75115.75115,0,0,0-.74-.742h-6.011a.75356.75356,0,0,0-.742.742v11.563a.75154.75154,0,0,0,.742.742h6.011a.74915.74915,0,0,0,.74-.742Z" transform="translate(-33.5164 -33.5172)"></path>
    <polygon class="cls-8" points="108.88 71.524 108.88 55.606 119.787 55.606 119.787 58.064 111.673 58.064 111.673 62.169 119.62 62.169 119.62 64.627 111.673 64.627 111.673 69.066 119.787 69.066 119.787 71.524 108.88 71.524"></polygon>
    <path class="cls-8" d="M156.1487,98.7411v-9.618h2.84v9.546c0,2.53,1.409,4.177,4.057,4.177,2.649,0,4.057-1.647,4.057-4.177v-9.546h2.841v9.618c0,3.938-2.268,6.586-6.898,6.586-4.606,0-6.897-2.648-6.897-6.586" transform="translate(-33.5164 -33.5172)"></path>
    <path class="cls-8" d="M182.505,105.0413l-3.508-5.943h-2.793v5.943h-2.792V89.1233h6.992c3.151,0,5.227,2.029,5.227,4.988a4.47882,4.47882,0,0,1-3.794,4.677l3.913,6.253Zm.262-10.954a2.49207,2.49207,0,0,0-2.72-2.506h-3.843v5.06h3.843a2.51461,2.51461,0,0,0,2.72-2.554" transform="translate(-33.5164 -33.5172)"></path>
    <path class="cls-8" d="M187.47409,97.0946a8.13855,8.13855,0,1,1,8.138,8.233,7.8971,7.8971,0,0,1-8.138-8.233m13.413,0c0-3.293-2.077-5.752-5.275-5.752-3.221,0-5.274,2.459-5.274,5.752,0,3.269,2.053,5.752,5.274,5.752,3.198,0,5.275-2.483,5.275-5.752" transform="translate(-33.5164 -33.5172)"></path>
    <path class="cls-8" d="M206.4342,105.0416V89.1236h7.017a4.98,4.98,0,1,1,0,9.952h-4.225v5.966Zm9.332-10.93a2.49044,2.49044,0,0,0-2.697-2.53h-3.843v5.035h3.843a2.48471,2.48471,0,0,0,2.697-2.505" transform="translate(-33.5164 -33.5172)"></path>
    <polygon class="cls-8" points="187.222 71.524 187.222 55.606 198.129 55.606 198.129 58.064 190.014 58.064 190.014 62.169 197.962 62.169 197.962 64.627 190.014 64.627 190.014 69.066 198.129 69.066 198.129 71.524 187.222 71.524"></polygon>
    <path class="cls-8" d="M245.94159,105.0415l-1.169-3.079h-7.303l-1.169,3.079h-3.174l6.252-15.918h3.485l6.252,15.918Zm-4.82-13.126-2.864,7.589h5.728Z" transform="translate(-33.5164 -33.5172)"></path>
    <polygon class="cls-8" points="228.435 71.524 220.131 60.141 220.131 71.524 217.338 71.524 217.338 55.606 220.201 55.606 228.339 66.632 228.339 55.606 231.132 55.606 231.132 71.524 228.435 71.524"></polygon>
    <path class="cls-8" d="M283.28448,105.0413l-3.507-5.943h-2.792v5.943h-2.793V89.1233h6.993c3.15,0,5.226,2.029,5.226,4.988a4.4788,4.4788,0,0,1-3.794,4.677l3.914,6.253Zm.263-10.954a2.49155,2.49155,0,0,0-2.72-2.506h-3.842v5.06h3.842a2.51408,2.51408,0,0,0,2.72-2.554" transform="translate(-33.5164 -33.5172)"></path>
    <polygon class="cls-8" points="255.686 71.524 255.686 55.606 266.593 55.606 266.593 58.064 258.479 58.064 258.479 62.169 266.426 62.169 266.426 64.627 258.479 64.627 258.479 69.066 266.593 69.066 266.593 71.524 255.686 71.524"></polygon>
    <path class="cls-8" d="M301.8945,102.79789l1.575-2.172a6.83462,6.83462,0,0,0,5.035,2.22c2.291,0,3.174-1.122,3.174-2.196,0-3.341-9.26-1.264-9.26-7.111,0-2.65,2.291-4.678,5.8-4.678a8.23632,8.23632,0,0,1,5.942,2.243l-1.575,2.076a6.49088,6.49088,0,0,0-4.63-1.837c-1.622,0-2.673.812-2.673,1.981,0,2.983,9.26,1.145,9.26,7.064,0,2.648-1.886,4.939-6.157,4.939a8.69736,8.69736,0,0,1-6.491-2.529" transform="translate(-33.5164 -33.5172)"></path>
    <polygon class="cls-8" points="283.677 71.524 283.677 55.606 294.584 55.606 294.584 58.064 286.47 58.064 286.47 62.169 294.417 62.169 294.417 64.627 286.47 64.627 286.47 69.066 294.584 69.066 294.584 71.524 283.677 71.524"></polygon>
    <path class="cls-8" d="M342.39557,105.0415l-1.169-3.079h-7.303l-1.169,3.079h-3.174l6.252-15.918h3.485l6.252,15.918Zm-4.82-13.126-2.864,7.589h5.728Z" transform="translate(-33.5164 -33.5172)"></path>
    <path class="cls-8" d="M356.40176,105.0413l-3.508-5.943h-2.793v5.943h-2.792V89.1233h6.992c3.151,0,5.227,2.029,5.227,4.988a4.4788,4.4788,0,0,1-3.794,4.677l3.913,6.253Zm.262-10.954a2.49208,2.49208,0,0,0-2.72-2.506h-3.843v5.06h3.843a2.51462,2.51462,0,0,0,2.72-2.554" transform="translate(-33.5164 -33.5172)"></path>
    <path class="cls-8" d="M361.34271,97.0946a8.01755,8.01755,0,0,1,8.353-8.234,7.13939,7.13939,0,0,1,6.372,3.556l-2.363,1.241a4.70649,4.70649,0,0,0-4.009-2.315,5.7583,5.7583,0,0,0,0,11.504,4.75937,4.75937,0,0,0,4.009-2.315l2.386,1.193a7.26878,7.26878,0,0,1-6.395,3.603,8.03058,8.03058,0,0,1-8.353-8.233" transform="translate(-33.5164 -33.5172)"></path>
    <polygon class="cls-8" points="355.883 71.524 355.883 64.555 347.603 64.555 347.603 71.524 344.81 71.524 344.81 55.606 347.603 55.606 347.603 62.097 355.883 62.097 355.883 55.606 358.676 55.606 358.676 71.524 355.883 71.524"></polygon>
    <rect class="cls-8" x="368.2206" y="55.6058" width="2.793" height="15.918"></rect>
    <polygon class="cls-8" points="385.584 71.524 377.279 60.141 377.279 71.524 374.487 71.524 374.487 55.606 377.35 55.606 385.489 66.632 385.489 55.606 388.281 55.606 388.281 71.524 385.584 71.524"></polygon>
    <polygon class="cls-8" points="391.792 71.524 391.792 55.606 402.699 55.606 402.699 58.064 394.585 58.064 394.585 62.169 402.532 62.169 402.532 64.627 394.585 64.627 394.585 71.524 391.792 71.524"></polygon>
    <path class="cls-8" d="M447.74136,105.0413l-3.508-5.943h-2.793v5.943h-2.792V89.1233h6.992c3.151,0,5.227,2.029,5.227,4.988a4.4788,4.4788,0,0,1-3.794,4.677l3.913,6.253Zm.262-10.954a2.49208,2.49208,0,0,0-2.72-2.506h-3.843v5.06h3.843a2.51462,2.51462,0,0,0,2.72-2.554" transform="translate(-33.5164 -33.5172)"></path>
    <path class="cls-8" d="M465.20169,105.0415l-1.169-3.079h-7.303l-1.169,3.079h-3.174l6.253-15.918h3.484l6.252,15.918Zm-4.82-13.126-2.864,7.589h5.728Z" transform="translate(-33.5164 -33.5172)"></path>
    <path class="cls-8" d="M469.2338,102.79789l1.576-2.172a6.83641,6.83641,0,0,0,5.035,2.22c2.291,0,3.174-1.122,3.174-2.196,0-3.341-9.26-1.264-9.26-7.111,0-2.65,2.291-4.678,5.8-4.678a8.238,8.238,0,0,1,5.942,2.243l-1.576,2.076a6.487,6.487,0,0,0-4.629-1.837c-1.622,0-2.673.812-2.673,1.981,0,2.983,9.26,1.145,9.26,7.064,0,2.648-1.886,4.939-6.158,4.939a8.70054,8.70054,0,0,1-6.491-2.529" transform="translate(-33.5164 -33.5172)"></path>
    <polygon class="cls-8" points="454.626 71.524 454.626 58.064 449.804 58.064 449.804 55.606 462.238 55.606 462.238 58.064 457.417 58.064 457.417 71.524 454.626 71.524"></polygon>
    <path class="cls-8" d="M506.89008,105.0413l-3.508-5.943h-2.793v5.943h-2.792V89.1233h6.992c3.151,0,5.227,2.029,5.227,4.988a4.4788,4.4788,0,0,1-3.794,4.677l3.913,6.253Zm.262-10.954a2.49154,2.49154,0,0,0-2.72-2.506h-3.843v5.06h3.843a2.51408,2.51408,0,0,0,2.72-2.554" transform="translate(-33.5164 -33.5172)"></path>
    <path class="cls-8" d="M512.592,98.7411v-9.618h2.84v9.546c0,2.53,1.409,4.177,4.057,4.177,2.649,0,4.057-1.647,4.057-4.177v-9.546h2.84v9.618c0,3.938-2.267,6.586-6.897,6.586-4.606,0-6.897-2.648-6.897-6.586" transform="translate(-33.5164 -33.5172)"></path>
    <path class="cls-8" d="M528.9679,97.0946a8.01753,8.01753,0,0,1,8.353-8.234,7.13944,7.13944,0,0,1,6.372,3.556l-2.363,1.241a4.70523,4.70523,0,0,0-4.009-2.315,5.7583,5.7583,0,0,0,0,11.504,4.75808,4.75808,0,0,0,4.009-2.315l2.387,1.193a7.27174,7.27174,0,0,1-6.396,3.603,8.03056,8.03056,0,0,1-8.353-8.233" transform="translate(-33.5164 -33.5172)"></path>
    <polygon class="cls-8" points="516.357 71.524 516.357 58.064 511.536 58.064 511.536 55.606 523.969 55.606 523.969 58.064 519.149 58.064 519.149 71.524 516.357 71.524"></polygon>
    <path class="cls-8" d="M559.52728,98.7411v-9.618h2.84v9.546c0,2.53,1.409,4.177,4.057,4.177,2.649,0,4.057-1.647,4.057-4.177v-9.546h2.84v9.618c0,3.938-2.267,6.586-6.897,6.586-4.606,0-6.897-2.648-6.897-6.586" transform="translate(-33.5164 -33.5172)"></path>
    <path class="cls-8" d="M585.88171,105.0413l-3.507-5.943h-2.792v5.943h-2.793V89.1233h6.993c3.15,0,5.226,2.029,5.226,4.988a4.47878,4.47878,0,0,1-3.794,4.677l3.914,6.253Zm.263-10.954a2.49155,2.49155,0,0,0-2.72-2.506h-3.842v5.06h3.842a2.51409,2.51409,0,0,0,2.72-2.554" transform="translate(-33.5164 -33.5172)"></path>
    <polygon class="cls-8" points="558.284 71.524 558.284 55.606 569.191 55.606 569.191 58.064 561.076 58.064 561.076 62.169 569.024 62.169 569.024 64.627 561.076 64.627 561.076 69.066 569.191 69.066 569.191 71.524 558.284 71.524"></polygon>
    <polygon class="cls-8" points="108.88 95.388 108.88 79.47 119.787 79.47 119.787 81.928 111.673 81.928 111.673 86.033 119.62 86.033 119.62 88.491 111.673 88.491 111.673 95.388 108.88 95.388"></polygon>
    <path class="cls-8" d="M155.0011,120.9585a8.139,8.139,0,1,1,8.138,8.233,7.89709,7.89709,0,0,1-8.138-8.233m13.412,0c0-3.293-2.076-5.752-5.274-5.752-3.221,0-5.274,2.459-5.274,5.752,0,3.269,2.053,5.752,5.274,5.752,3.198,0,5.274-2.483,5.274-5.752" transform="translate(-33.5164 -33.5172)"></path>
    <path class="cls-8" d="M183.0535,128.9053l-3.508-5.943h-2.793v5.943h-2.792v-15.918h6.992c3.151,0,5.227,2.029,5.227,4.988a4.4788,4.4788,0,0,1-3.794,4.677l3.913,6.253Zm.262-10.954a2.49154,2.49154,0,0,0-2.72-2.506h-3.843v5.06h3.843a2.51407,2.51407,0,0,0,2.72-2.554" transform="translate(-33.5164 -33.5172)"></path>
    <polygon class="cls-8" points="172.685 95.388 172.685 88.419 164.404 88.419 164.404 95.388 161.612 95.388 161.612 79.47 164.404 79.47 164.404 85.961 172.685 85.961 172.685 79.47 175.477 79.47 175.477 95.388 172.685 95.388"></polygon>
    <polygon class="cls-8" points="178.989 95.388 178.989 79.47 189.896 79.47 189.896 81.928 181.782 81.928 181.782 86.033 189.729 86.033 189.729 88.491 181.782 88.491 181.782 92.93 189.896 92.93 189.896 95.388 178.989 95.388"></polygon>
    <path class="cls-8" d="M235.56931,128.9053l-3.507-5.943h-2.792v5.943h-2.793v-15.918h6.993c3.15,0,5.226,2.029,5.226,4.988a4.4788,4.4788,0,0,1-3.794,4.677l3.914,6.253Zm.263-10.954a2.49207,2.49207,0,0,0-2.72-2.506h-3.842v5.06h3.842a2.51461,2.51461,0,0,0,2.72-2.554" transform="translate(-33.5164 -33.5172)"></path>
    <rect class="cls-8" x="207.9596" y="79.4698" width="2.79201" height="15.918"></rect>
    <polygon class="cls-8" points="217.589 95.388 217.589 81.928 212.768 81.928 212.768 79.47 225.202 79.47 225.202 81.928 220.381 81.928 220.381 95.388 217.589 95.388"></polygon>
    <path class="cls-8" d="M270.29129,128.9055l-1.169-3.079h-7.303l-1.169,3.079h-3.174l6.252-15.918h3.484l6.253,15.918Zm-4.82-13.126-2.864,7.589h5.728Z" transform="translate(-33.5164 -33.5172)"></path>
    <path class="cls-8" d="M273.77039,120.9585a8.00257,8.00257,0,0,1,8.353-8.234,7.44953,7.44953,0,0,1,6.396,3.294l-2.268,1.312a5.13539,5.13539,0,0,0-4.128-2.124,5.7583,5.7583,0,0,0,0,11.504,5.7161,5.7161,0,0,0,3.771-1.433v-2.457h-4.773v-2.459h7.541v5.943a8.60459,8.60459,0,0,1-6.539,2.911,8.03456,8.03456,0,0,1-8.353-8.257" transform="translate(-33.5164 -33.5172)"></path>
    <polygon class="cls-8" points="258.247 95.388 258.247 79.47 269.154 79.47 269.154 81.928 261.039 81.928 261.039 86.033 268.987 86.033 268.987 88.491 261.039 88.491 261.039 92.93 269.154 92.93 269.154 95.388 258.247 95.388"></polygon>
    <path class="cls-8" d="M310.66422,126.66179l1.575-2.172a6.8346,6.8346,0,0,0,5.035,2.22c2.291,0,3.174-1.122,3.174-2.196,0-3.341-9.26-1.264-9.26-7.111,0-2.65,2.291-4.678,5.8-4.678a8.23632,8.23632,0,0,1,5.942,2.243l-1.575,2.076a6.49088,6.49088,0,0,0-4.63-1.837c-1.622,0-2.673.812-2.673,1.981,0,2.983,9.26,1.145,9.26,7.064,0,2.648-1.886,4.939-6.157,4.939a8.69732,8.69732,0,0,1-6.491-2.529" transform="translate(-33.5164 -33.5172)"></path>
    <path class="cls-8" d="M324.975,120.9585a8.01754,8.01754,0,0,1,8.353-8.234,7.13939,7.13939,0,0,1,6.372,3.556l-2.363,1.241a4.7065,4.7065,0,0,0-4.009-2.315,5.7583,5.7583,0,0,0,0,11.504,4.75939,4.75939,0,0,0,4.009-2.315l2.386,1.193a7.26877,7.26877,0,0,1-6.395,3.603,8.03057,8.03057,0,0,1-8.353-8.233" transform="translate(-33.5164 -33.5172)"></path>
    <rect class="cls-8" x="308.42962" y="79.4698" width="2.793" height="15.918"></rect>
    <polygon class="cls-8" points="314.696 95.388 314.696 79.47 325.603 79.47 325.603 81.928 317.488 81.928 317.488 86.033 325.436 86.033 325.436 88.491 317.488 88.491 317.488 92.93 325.603 92.93 325.603 95.388 314.696 95.388"></polygon>
    <polygon class="cls-8" points="339.766 95.388 331.461 84.005 331.461 95.388 328.669 95.388 328.669 79.47 331.532 79.47 339.67 90.496 339.67 79.47 342.463 79.47 342.463 95.388 339.766 95.388"></polygon>
    <path class="cls-8" d="M378.66241,120.9585a8.01755,8.01755,0,0,1,8.353-8.234,7.13939,7.13939,0,0,1,6.372,3.556l-2.363,1.241a4.70647,4.70647,0,0,0-4.009-2.315,5.7583,5.7583,0,0,0,0,11.504,4.75936,4.75936,0,0,0,4.009-2.315l2.387,1.193a7.27177,7.27177,0,0,1-6.396,3.603,8.03058,8.03058,0,0,1-8.353-8.233" transform="translate(-33.5164 -33.5172)"></path>
    <polygon class="cls-8" points="362.13 95.388 362.13 79.47 373.037 79.47 373.037 81.928 364.922 81.928 364.922 86.033 372.87 86.033 372.87 88.491 364.922 88.491 364.922 92.93 373.037 92.93 373.037 95.388 362.13 95.388"></polygon>
  </g>
</svg>
